<mxfile host="app.diagrams.net" modified="2023-08-08T12:33:30.224Z" agent="Mozilla/5.0 (Windows NT 10.0; Win64; x64) AppleWebKit/537.36 (KHTML, like Gecko) Chrome/115.0.0.0 Safari/537.36" etag="2FGE9UC03LpDgLcK3gRx" version="21.6.6" type="github">
  <diagram name="Страница 1" id="6XP_VJZJF44IaDXwyHIo">
    <mxGraphModel dx="794" dy="456" grid="1" gridSize="10" guides="1" tooltips="1" connect="1" arrows="1" fold="1" page="1" pageScale="1" pageWidth="827" pageHeight="1169" math="0" shadow="0">
      <root>
        <mxCell id="0" />
        <mxCell id="1" parent="0" />
        <mxCell id="yS0NJt4ejtjzOcQK37gy-36" style="edgeStyle=orthogonalEdgeStyle;rounded=0;orthogonalLoop=1;jettySize=auto;html=1;exitX=1;exitY=0.25;exitDx=0;exitDy=0;entryX=-0.005;entryY=-0.244;entryDx=0;entryDy=0;entryPerimeter=0;" edge="1" parent="1" source="yS0NJt4ejtjzOcQK37gy-1" target="yS0NJt4ejtjzOcQK37gy-15">
          <mxGeometry relative="1" as="geometry" />
        </mxCell>
        <mxCell id="yS0NJt4ejtjzOcQK37gy-1" value="Student" style="swimlane;fontStyle=0;childLayout=stackLayout;horizontal=1;startSize=30;horizontalStack=0;resizeParent=1;resizeParentMax=0;resizeLast=0;collapsible=1;marginBottom=0;whiteSpace=wrap;html=1;" vertex="1" parent="1">
          <mxGeometry x="80" y="80" width="140" height="330" as="geometry" />
        </mxCell>
        <mxCell id="yS0NJt4ejtjzOcQK37gy-2" value="StudentName&amp;nbsp; &amp;nbsp; &amp;nbsp; &amp;nbsp; string" style="text;strokeColor=none;fillColor=none;align=left;verticalAlign=middle;spacingLeft=4;spacingRight=4;overflow=hidden;points=[[0,0.5],[1,0.5]];portConstraint=eastwest;rotatable=0;whiteSpace=wrap;html=1;" vertex="1" parent="yS0NJt4ejtjzOcQK37gy-1">
          <mxGeometry y="30" width="140" height="30" as="geometry" />
        </mxCell>
        <mxCell id="yS0NJt4ejtjzOcQK37gy-7" value="StudentId&amp;nbsp; &amp;nbsp; &amp;nbsp; &amp;nbsp; &amp;nbsp; &amp;nbsp; &amp;nbsp; int" style="text;strokeColor=none;fillColor=none;align=left;verticalAlign=middle;spacingLeft=4;spacingRight=4;overflow=hidden;points=[[0,0.5],[1,0.5]];portConstraint=eastwest;rotatable=0;whiteSpace=wrap;html=1;" vertex="1" parent="yS0NJt4ejtjzOcQK37gy-1">
          <mxGeometry y="60" width="140" height="30" as="geometry" />
        </mxCell>
        <mxCell id="yS0NJt4ejtjzOcQK37gy-3" value="StudentAge&amp;nbsp; &amp;nbsp; &amp;nbsp; &amp;nbsp; &amp;nbsp; &amp;nbsp;int" style="text;strokeColor=none;fillColor=none;align=left;verticalAlign=middle;spacingLeft=4;spacingRight=4;overflow=hidden;points=[[0,0.5],[1,0.5]];portConstraint=eastwest;rotatable=0;whiteSpace=wrap;html=1;" vertex="1" parent="yS0NJt4ejtjzOcQK37gy-1">
          <mxGeometry y="90" width="140" height="30" as="geometry" />
        </mxCell>
        <mxCell id="yS0NJt4ejtjzOcQK37gy-4" value="StudentEmail&amp;nbsp; &amp;nbsp; &amp;nbsp; &amp;nbsp; string" style="text;strokeColor=none;fillColor=none;align=left;verticalAlign=middle;spacingLeft=4;spacingRight=4;overflow=hidden;points=[[0,0.5],[1,0.5]];portConstraint=eastwest;rotatable=0;whiteSpace=wrap;html=1;" vertex="1" parent="yS0NJt4ejtjzOcQK37gy-1">
          <mxGeometry y="120" width="140" height="30" as="geometry" />
        </mxCell>
        <mxCell id="yS0NJt4ejtjzOcQK37gy-5" value="StudentPhone&amp;nbsp; &amp;nbsp; &amp;nbsp; &amp;nbsp;string" style="text;strokeColor=none;fillColor=none;align=left;verticalAlign=middle;spacingLeft=4;spacingRight=4;overflow=hidden;points=[[0,0.5],[1,0.5]];portConstraint=eastwest;rotatable=0;whiteSpace=wrap;html=1;" vertex="1" parent="yS0NJt4ejtjzOcQK37gy-1">
          <mxGeometry y="150" width="140" height="30" as="geometry" />
        </mxCell>
        <mxCell id="yS0NJt4ejtjzOcQK37gy-6" value="StudentWallet&amp;nbsp; &amp;nbsp; &amp;nbsp; &amp;nbsp; int" style="text;strokeColor=none;fillColor=none;align=left;verticalAlign=middle;spacingLeft=4;spacingRight=4;overflow=hidden;points=[[0,0.5],[1,0.5]];portConstraint=eastwest;rotatable=0;whiteSpace=wrap;html=1;" vertex="1" parent="yS0NJt4ejtjzOcQK37gy-1">
          <mxGeometry y="180" width="140" height="30" as="geometry" />
        </mxCell>
        <mxCell id="yS0NJt4ejtjzOcQK37gy-8" value="StudentGender&amp;nbsp; &amp;nbsp; &amp;nbsp;string" style="text;strokeColor=none;fillColor=none;align=left;verticalAlign=middle;spacingLeft=4;spacingRight=4;overflow=hidden;points=[[0,0.5],[1,0.5]];portConstraint=eastwest;rotatable=0;whiteSpace=wrap;html=1;" vertex="1" parent="yS0NJt4ejtjzOcQK37gy-1">
          <mxGeometry y="210" width="140" height="30" as="geometry" />
        </mxCell>
        <mxCell id="yS0NJt4ejtjzOcQK37gy-9" value="MentorName&amp;nbsp; &amp;nbsp; &amp;nbsp; &amp;nbsp; &amp;nbsp;string" style="text;strokeColor=none;fillColor=none;align=left;verticalAlign=middle;spacingLeft=4;spacingRight=4;overflow=hidden;points=[[0,0.5],[1,0.5]];portConstraint=eastwest;rotatable=0;whiteSpace=wrap;html=1;" vertex="1" parent="yS0NJt4ejtjzOcQK37gy-1">
          <mxGeometry y="240" width="140" height="30" as="geometry" />
        </mxCell>
        <mxCell id="yS0NJt4ejtjzOcQK37gy-10" value="CourseName&amp;nbsp; &amp;nbsp; &amp;nbsp; &amp;nbsp; string" style="text;strokeColor=none;fillColor=none;align=left;verticalAlign=middle;spacingLeft=4;spacingRight=4;overflow=hidden;points=[[0,0.5],[1,0.5]];portConstraint=eastwest;rotatable=0;whiteSpace=wrap;html=1;" vertex="1" parent="yS0NJt4ejtjzOcQK37gy-1">
          <mxGeometry y="270" width="140" height="30" as="geometry" />
        </mxCell>
        <mxCell id="yS0NJt4ejtjzOcQK37gy-11" value="GroupName&amp;nbsp; &amp;nbsp; &amp;nbsp; &amp;nbsp; &amp;nbsp; string" style="text;strokeColor=none;fillColor=none;align=left;verticalAlign=middle;spacingLeft=4;spacingRight=4;overflow=hidden;points=[[0,0.5],[1,0.5]];portConstraint=eastwest;rotatable=0;whiteSpace=wrap;html=1;" vertex="1" parent="yS0NJt4ejtjzOcQK37gy-1">
          <mxGeometry y="300" width="140" height="30" as="geometry" />
        </mxCell>
        <mxCell id="yS0NJt4ejtjzOcQK37gy-12" value="Mentor" style="swimlane;fontStyle=0;childLayout=stackLayout;horizontal=1;startSize=30;horizontalStack=0;resizeParent=1;resizeParentMax=0;resizeLast=0;collapsible=1;marginBottom=0;whiteSpace=wrap;html=1;" vertex="1" parent="1">
          <mxGeometry x="280" y="80" width="140" height="270" as="geometry" />
        </mxCell>
        <mxCell id="yS0NJt4ejtjzOcQK37gy-13" value="MentorName&amp;nbsp; &amp;nbsp; &amp;nbsp; &amp;nbsp;string" style="text;strokeColor=none;fillColor=none;align=left;verticalAlign=middle;spacingLeft=4;spacingRight=4;overflow=hidden;points=[[0,0.5],[1,0.5]];portConstraint=eastwest;rotatable=0;whiteSpace=wrap;html=1;" vertex="1" parent="yS0NJt4ejtjzOcQK37gy-12">
          <mxGeometry y="30" width="140" height="30" as="geometry" />
        </mxCell>
        <mxCell id="yS0NJt4ejtjzOcQK37gy-14" value="MentorId&amp;nbsp; &amp;nbsp; &amp;nbsp; &amp;nbsp; &amp;nbsp; &amp;nbsp; &amp;nbsp; id" style="text;strokeColor=none;fillColor=none;align=left;verticalAlign=middle;spacingLeft=4;spacingRight=4;overflow=hidden;points=[[0,0.5],[1,0.5]];portConstraint=eastwest;rotatable=0;whiteSpace=wrap;html=1;" vertex="1" parent="yS0NJt4ejtjzOcQK37gy-12">
          <mxGeometry y="60" width="140" height="30" as="geometry" />
        </mxCell>
        <mxCell id="yS0NJt4ejtjzOcQK37gy-15" value="MentorEmail&amp;nbsp; &amp;nbsp; &amp;nbsp; &amp;nbsp; string" style="text;strokeColor=none;fillColor=none;align=left;verticalAlign=middle;spacingLeft=4;spacingRight=4;overflow=hidden;points=[[0,0.5],[1,0.5]];portConstraint=eastwest;rotatable=0;whiteSpace=wrap;html=1;" vertex="1" parent="yS0NJt4ejtjzOcQK37gy-12">
          <mxGeometry y="90" width="140" height="30" as="geometry" />
        </mxCell>
        <mxCell id="yS0NJt4ejtjzOcQK37gy-16" value="MentorPhone&amp;nbsp; &amp;nbsp; &amp;nbsp; string" style="text;strokeColor=none;fillColor=none;align=left;verticalAlign=middle;spacingLeft=4;spacingRight=4;overflow=hidden;points=[[0,0.5],[1,0.5]];portConstraint=eastwest;rotatable=0;whiteSpace=wrap;html=1;" vertex="1" parent="yS0NJt4ejtjzOcQK37gy-12">
          <mxGeometry y="120" width="140" height="30" as="geometry" />
        </mxCell>
        <mxCell id="yS0NJt4ejtjzOcQK37gy-17" value="CourseName&amp;nbsp; &amp;nbsp; &amp;nbsp; &amp;nbsp;string" style="text;strokeColor=none;fillColor=none;align=left;verticalAlign=middle;spacingLeft=4;spacingRight=4;overflow=hidden;points=[[0,0.5],[1,0.5]];portConstraint=eastwest;rotatable=0;whiteSpace=wrap;html=1;" vertex="1" parent="yS0NJt4ejtjzOcQK37gy-12">
          <mxGeometry y="150" width="140" height="30" as="geometry" />
        </mxCell>
        <mxCell id="yS0NJt4ejtjzOcQK37gy-18" value="MentorLevel&amp;nbsp; &amp;nbsp; &amp;nbsp; &amp;nbsp; string" style="text;strokeColor=none;fillColor=none;align=left;verticalAlign=middle;spacingLeft=4;spacingRight=4;overflow=hidden;points=[[0,0.5],[1,0.5]];portConstraint=eastwest;rotatable=0;whiteSpace=wrap;html=1;" vertex="1" parent="yS0NJt4ejtjzOcQK37gy-12">
          <mxGeometry y="180" width="140" height="30" as="geometry" />
        </mxCell>
        <mxCell id="yS0NJt4ejtjzOcQK37gy-19" value="StudentName&amp;nbsp; &amp;nbsp; &amp;nbsp; string" style="text;strokeColor=none;fillColor=none;align=left;verticalAlign=middle;spacingLeft=4;spacingRight=4;overflow=hidden;points=[[0,0.5],[1,0.5]];portConstraint=eastwest;rotatable=0;whiteSpace=wrap;html=1;" vertex="1" parent="yS0NJt4ejtjzOcQK37gy-12">
          <mxGeometry y="210" width="140" height="30" as="geometry" />
        </mxCell>
        <mxCell id="yS0NJt4ejtjzOcQK37gy-20" value="StudentPhone&amp;nbsp; &amp;nbsp; &amp;nbsp;string" style="text;strokeColor=none;fillColor=none;align=left;verticalAlign=middle;spacingLeft=4;spacingRight=4;overflow=hidden;points=[[0,0.5],[1,0.5]];portConstraint=eastwest;rotatable=0;whiteSpace=wrap;html=1;" vertex="1" parent="yS0NJt4ejtjzOcQK37gy-12">
          <mxGeometry y="240" width="140" height="30" as="geometry" />
        </mxCell>
        <mxCell id="yS0NJt4ejtjzOcQK37gy-21" value="Course" style="swimlane;fontStyle=0;childLayout=stackLayout;horizontal=1;startSize=30;horizontalStack=0;resizeParent=1;resizeParentMax=0;resizeLast=0;collapsible=1;marginBottom=0;whiteSpace=wrap;html=1;" vertex="1" parent="1">
          <mxGeometry x="480" y="80" width="140" height="210" as="geometry" />
        </mxCell>
        <mxCell id="yS0NJt4ejtjzOcQK37gy-22" value="CourseId&amp;nbsp; &amp;nbsp; &amp;nbsp; &amp;nbsp; &amp;nbsp; &amp;nbsp; &amp;nbsp;int" style="text;strokeColor=none;fillColor=none;align=left;verticalAlign=middle;spacingLeft=4;spacingRight=4;overflow=hidden;points=[[0,0.5],[1,0.5]];portConstraint=eastwest;rotatable=0;whiteSpace=wrap;html=1;" vertex="1" parent="yS0NJt4ejtjzOcQK37gy-21">
          <mxGeometry y="30" width="140" height="30" as="geometry" />
        </mxCell>
        <mxCell id="yS0NJt4ejtjzOcQK37gy-23" value="CourseName&amp;nbsp; &amp;nbsp; &amp;nbsp; &amp;nbsp;string" style="text;strokeColor=none;fillColor=none;align=left;verticalAlign=middle;spacingLeft=4;spacingRight=4;overflow=hidden;points=[[0,0.5],[1,0.5]];portConstraint=eastwest;rotatable=0;whiteSpace=wrap;html=1;" vertex="1" parent="yS0NJt4ejtjzOcQK37gy-21">
          <mxGeometry y="60" width="140" height="30" as="geometry" />
        </mxCell>
        <mxCell id="yS0NJt4ejtjzOcQK37gy-24" value="CourseLength&amp;nbsp; &amp;nbsp; &amp;nbsp; string" style="text;strokeColor=none;fillColor=none;align=left;verticalAlign=middle;spacingLeft=4;spacingRight=4;overflow=hidden;points=[[0,0.5],[1,0.5]];portConstraint=eastwest;rotatable=0;whiteSpace=wrap;html=1;" vertex="1" parent="yS0NJt4ejtjzOcQK37gy-21">
          <mxGeometry y="90" width="140" height="30" as="geometry" />
        </mxCell>
        <mxCell id="yS0NJt4ejtjzOcQK37gy-25" value="CoursePrice&amp;nbsp; &amp;nbsp; &amp;nbsp; &amp;nbsp; &amp;nbsp;int" style="text;strokeColor=none;fillColor=none;align=left;verticalAlign=middle;spacingLeft=4;spacingRight=4;overflow=hidden;points=[[0,0.5],[1,0.5]];portConstraint=eastwest;rotatable=0;whiteSpace=wrap;html=1;" vertex="1" parent="yS0NJt4ejtjzOcQK37gy-21">
          <mxGeometry y="120" width="140" height="30" as="geometry" />
        </mxCell>
        <mxCell id="yS0NJt4ejtjzOcQK37gy-26" value="MentorName&amp;nbsp; &amp;nbsp; &amp;nbsp; &amp;nbsp; string" style="text;strokeColor=none;fillColor=none;align=left;verticalAlign=middle;spacingLeft=4;spacingRight=4;overflow=hidden;points=[[0,0.5],[1,0.5]];portConstraint=eastwest;rotatable=0;whiteSpace=wrap;html=1;" vertex="1" parent="yS0NJt4ejtjzOcQK37gy-21">
          <mxGeometry y="150" width="140" height="30" as="geometry" />
        </mxCell>
        <mxCell id="yS0NJt4ejtjzOcQK37gy-27" value="StudentName&amp;nbsp; &amp;nbsp; &amp;nbsp; string" style="text;strokeColor=none;fillColor=none;align=left;verticalAlign=middle;spacingLeft=4;spacingRight=4;overflow=hidden;points=[[0,0.5],[1,0.5]];portConstraint=eastwest;rotatable=0;whiteSpace=wrap;html=1;" vertex="1" parent="yS0NJt4ejtjzOcQK37gy-21">
          <mxGeometry y="180" width="140" height="30" as="geometry" />
        </mxCell>
        <mxCell id="yS0NJt4ejtjzOcQK37gy-28" value="Group" style="swimlane;fontStyle=0;childLayout=stackLayout;horizontal=1;startSize=30;horizontalStack=0;resizeParent=1;resizeParentMax=0;resizeLast=0;collapsible=1;marginBottom=0;whiteSpace=wrap;html=1;" vertex="1" parent="1">
          <mxGeometry x="670" y="80" width="140" height="210" as="geometry" />
        </mxCell>
        <mxCell id="yS0NJt4ejtjzOcQK37gy-29" value="GroupId&amp;nbsp; &amp;nbsp; &amp;nbsp; &amp;nbsp; &amp;nbsp; &amp;nbsp; &amp;nbsp; &amp;nbsp;int" style="text;strokeColor=none;fillColor=none;align=left;verticalAlign=middle;spacingLeft=4;spacingRight=4;overflow=hidden;points=[[0,0.5],[1,0.5]];portConstraint=eastwest;rotatable=0;whiteSpace=wrap;html=1;" vertex="1" parent="yS0NJt4ejtjzOcQK37gy-28">
          <mxGeometry y="30" width="140" height="30" as="geometry" />
        </mxCell>
        <mxCell id="yS0NJt4ejtjzOcQK37gy-30" value="GroupName&amp;nbsp; &amp;nbsp; &amp;nbsp; &amp;nbsp; string" style="text;strokeColor=none;fillColor=none;align=left;verticalAlign=middle;spacingLeft=4;spacingRight=4;overflow=hidden;points=[[0,0.5],[1,0.5]];portConstraint=eastwest;rotatable=0;whiteSpace=wrap;html=1;" vertex="1" parent="yS0NJt4ejtjzOcQK37gy-28">
          <mxGeometry y="60" width="140" height="30" as="geometry" />
        </mxCell>
        <mxCell id="yS0NJt4ejtjzOcQK37gy-31" value="GroupTime&amp;nbsp; &amp;nbsp; &amp;nbsp; &amp;nbsp; &amp;nbsp; string" style="text;strokeColor=none;fillColor=none;align=left;verticalAlign=middle;spacingLeft=4;spacingRight=4;overflow=hidden;points=[[0,0.5],[1,0.5]];portConstraint=eastwest;rotatable=0;whiteSpace=wrap;html=1;" vertex="1" parent="yS0NJt4ejtjzOcQK37gy-28">
          <mxGeometry y="90" width="140" height="30" as="geometry" />
        </mxCell>
        <mxCell id="yS0NJt4ejtjzOcQK37gy-33" value="StudentName&amp;nbsp; &amp;nbsp; &amp;nbsp; string" style="text;strokeColor=none;fillColor=none;align=left;verticalAlign=middle;spacingLeft=4;spacingRight=4;overflow=hidden;points=[[0,0.5],[1,0.5]];portConstraint=eastwest;rotatable=0;whiteSpace=wrap;html=1;" vertex="1" parent="yS0NJt4ejtjzOcQK37gy-28">
          <mxGeometry y="120" width="140" height="30" as="geometry" />
        </mxCell>
        <mxCell id="yS0NJt4ejtjzOcQK37gy-34" value="MentorName&amp;nbsp; &amp;nbsp; &amp;nbsp; &amp;nbsp;string" style="text;strokeColor=none;fillColor=none;align=left;verticalAlign=middle;spacingLeft=4;spacingRight=4;overflow=hidden;points=[[0,0.5],[1,0.5]];portConstraint=eastwest;rotatable=0;whiteSpace=wrap;html=1;" vertex="1" parent="yS0NJt4ejtjzOcQK37gy-28">
          <mxGeometry y="150" width="140" height="30" as="geometry" />
        </mxCell>
        <mxCell id="yS0NJt4ejtjzOcQK37gy-35" value="CourseName&amp;nbsp; &amp;nbsp; &amp;nbsp; &amp;nbsp;string" style="text;strokeColor=none;fillColor=none;align=left;verticalAlign=middle;spacingLeft=4;spacingRight=4;overflow=hidden;points=[[0,0.5],[1,0.5]];portConstraint=eastwest;rotatable=0;whiteSpace=wrap;html=1;" vertex="1" parent="yS0NJt4ejtjzOcQK37gy-28">
          <mxGeometry y="180" width="140" height="30" as="geometry" />
        </mxCell>
        <mxCell id="yS0NJt4ejtjzOcQK37gy-37" style="edgeStyle=orthogonalEdgeStyle;rounded=0;orthogonalLoop=1;jettySize=auto;html=1;exitX=1;exitY=0.5;exitDx=0;exitDy=0;entryX=0;entryY=0.5;entryDx=0;entryDy=0;" edge="1" parent="1" source="yS0NJt4ejtjzOcQK37gy-14" target="yS0NJt4ejtjzOcQK37gy-23">
          <mxGeometry relative="1" as="geometry" />
        </mxCell>
        <mxCell id="yS0NJt4ejtjzOcQK37gy-38" style="edgeStyle=orthogonalEdgeStyle;rounded=0;orthogonalLoop=1;jettySize=auto;html=1;exitX=1;exitY=0.5;exitDx=0;exitDy=0;" edge="1" parent="1" source="yS0NJt4ejtjzOcQK37gy-23" target="yS0NJt4ejtjzOcQK37gy-30">
          <mxGeometry relative="1" as="geometry" />
        </mxCell>
        <mxCell id="yS0NJt4ejtjzOcQK37gy-39" style="edgeStyle=orthogonalEdgeStyle;rounded=0;orthogonalLoop=1;jettySize=auto;html=1;exitX=0;exitY=0.5;exitDx=0;exitDy=0;entryX=1;entryY=0.5;entryDx=0;entryDy=0;" edge="1" parent="1" source="yS0NJt4ejtjzOcQK37gy-34" target="yS0NJt4ejtjzOcQK37gy-26">
          <mxGeometry relative="1" as="geometry" />
        </mxCell>
        <mxCell id="yS0NJt4ejtjzOcQK37gy-40" style="edgeStyle=orthogonalEdgeStyle;rounded=0;orthogonalLoop=1;jettySize=auto;html=1;exitX=0;exitY=0.5;exitDx=0;exitDy=0;entryX=1;entryY=0.5;entryDx=0;entryDy=0;" edge="1" parent="1" source="yS0NJt4ejtjzOcQK37gy-26" target="yS0NJt4ejtjzOcQK37gy-17">
          <mxGeometry relative="1" as="geometry" />
        </mxCell>
        <mxCell id="yS0NJt4ejtjzOcQK37gy-41" style="edgeStyle=orthogonalEdgeStyle;rounded=0;orthogonalLoop=1;jettySize=auto;html=1;exitX=0;exitY=0.5;exitDx=0;exitDy=0;entryX=1;entryY=0.5;entryDx=0;entryDy=0;" edge="1" parent="1" source="yS0NJt4ejtjzOcQK37gy-17" target="yS0NJt4ejtjzOcQK37gy-5">
          <mxGeometry relative="1" as="geometry" />
        </mxCell>
      </root>
    </mxGraphModel>
  </diagram>
</mxfile>
